<svg viewBox="0 0 595.28 841.89" xmlns="http://www.w3.org/2000/svg"><g stroke-miterlimit="10"><g fill="none" stroke="#231f20" stroke-width="3"><path d="m190.5 310c1.74-4.84 3.87-12.29 3.87-12.29l9 .29"/><path d="m198.72 306.68-4.35-9"/><path d="m200.75 312.48q2 3.19 4 6.39"/><path d="m207.16 323.5 4 6.39"/><path d="m213.71 335.41 4 6.39"/><path d="m219.68 345 4 6.39"/><path d="m227 356.25q2 3.19 4 6.39"/><path d="m233.68 367.94 4 6.39"/><path d="m241.3 379.11q2 3.19 4 6.39"/><path d="m248.36 391 4 6.38"/><path d="m254.66 401.79q2 3.19 4 6.39"/><path d="m260.32 411.39q2 3.19 4 6.38"/><path d="m210.87 298.21h9"/><path d="m223.08 298.21h9"/><path d="m238.91 298.21h9.09"/><path d="m254.44 298.55h9.05"/><path d="m268.57 298.55h9.05"/><path d="m283.86 298.55h9.05"/><path d="m296.73 298.55h9"/><path d="m311 298.55h9"/><path d="m326.15 298.55h9.05"/><path d="m342.82 297.63c4-.24 11.51-.42 11.51-.42s4.31 7.53 4.33 8"/><path d="m361 309.07q2 3.19 4 6.39"/><path d="m367.22 321 4 6.38"/><path d="m374.34 334.11q2 3.19 4 6.39"/><path d="m382.47 349.1 4 6.39"/><path d="m390.27 362.83 4 6.38"/><path d="m397.92 375.08q2 3.19 4 6.39"/><path d="m405.85 386.55q2 3.19 4 6.39"/><path d="m413.6 398.85q2 3.19 4 6.39"/><path d="m422.4 409.35c2.6 3.65 7.32 9.65 7.32 9.65s-5.45 6.42-7.84 9.65"/><path d="m420.48 420c3.14-.5 7.21-.77 9.45-1"/><path d="m404.62 420.58h9.46"/><path d="m385.42 421.31h9.45"/><path d="m369.77 422.08h9.45"/><path d="m354 423.39h9.46"/><path d="m335.77 423.92h9.45"/><path d="m318.54 424.23h9.46"/><path d="m301.32 424.23h9.45"/><path d="m285.67 424.84h9.45"/><path d="m266.85 421.16c1.94 2.86 4.07 6.15 4.07 6.15s5.58-1 8.54-1.62"/><path d="m187.92 316.58q-2.28 5.32-4.55 10.65"/><path d="m182.43 333.65-4.43 9.19"/><path d="m176.66 348q-2.43 4.86-4.84 9.71"/><path d="m170.27 362-4.13 9.36"/><path d="m163.88 376.06-4.88 11.52"/><path d="m157 391.35-5.83 10.94"/><path d="m149.27 407.16c-1.77 3.36-6 11.1-6 11.1s3.9 7.87 4.65 8.9"/><path d="m149.69 433 4.77 8.9"/><path d="m156.14 448.52 6.26 9.61"/><path d="m165.88 464.39c1.62 3.22 3.55 6.06 5.16 9.29"/><path d="m174 479.94q3 4.71 6.07 9.41"/><path d="m183.62 496.32 5.81 10.39"/><path d="m191.37 511.87 7.22 12.71"/><path d="m202.72 532.06c.45.46 8.84 9.81 8.84 9.81s5.61.23 8.84.07"/><path d="m215.69 536.39c-1.3 1.6-2.56 3.89-4.13 5.48"/><path d="m219 529.81c1-2.18 2.43-4.35 3.42-6.52"/><path d="m226 517.55 3.22-6.2"/><path d="m231.88 505.48 2.13-5.8"/><path d="m236.27 492.84 3.42-6.13"/><path d="m243.17 480.45 3-5.42"/><path d="m248.46 468.52 3.42-6.91"/><path d="m255.3 454 4.07-7.23"/><path d="m262.92 440.58q2.28-3.87 4.58-7.74"/><path d="m346.16 538.69c1.35.12 9.63-.14 9.63-.14s6.64-9.18 6.82-9.92"/><path d="m228.53 542.13 8.77.13"/><path d="m244.21 542.19 8.77.13"/><path d="m260.59 542.32 10.46.16"/><path d="m278.33 542.33 8.78.13"/><path d="m328.14 539.19h12.32"/><path d="m311.56 539.58 8.77.13"/><path d="m294.14 541.58 8.78.13"/><path d="m365.43 525.16q2.46-4.18 4.9-8.39"/><path d="m372.08 513.55 7.09-10.55"/><path d="m381.56 499.23 4.39-7.55"/><path d="m388.08 486.77c1.63-2.34 2.88-5.07 4.51-7.42"/><path d="m395.82 472.58c2-2.49 3.93-5 5.74-7.48"/><path d="m404.66 458.06 4.84-7.87"/><path d="m413 444.06 4.52-7.8"/></g><path d="m80.19 356.83c22.47-86.39 98.86-154.77 200-154.77s186.4 84.35 206.64 180.3h-21.43c-18-85.43-93.12-162.17-182.83-162.17s-166.79 62.59-186.73 139.52l26.89-10.81 6.63 12.62-48.63 19.71-24.22-39.94 10.59-5.8z" fill="#010101" stroke="#010101"/><path d="m478.72 495c-22.47 86.39-96.43 150.75-197.52 150.75s-188.83-80.3-209.07-176.25h21.38c18 85.44 95.55 158.15 185.26 158.15s164.36-58.57 184.3-135.49l-26.88 10.84-6.63-12.62 48.62-19.71 24.22 39.94-10.58 5.81z" fill="#010101" stroke="#010101"/></g></svg>