<svg id="Layer_1" xmlns="http://www.w3.org/2000/svg" viewBox="0 0 188.83 190.02"><defs><style>.cls-1,.cls-2{fill:#010101;}.cls-1{stroke:#010101;stroke-miterlimit:10;}</style></defs><path class="cls-1" d="M337.18,269.27c9.58-36.8,42.12-65.93,85.18-65.93s79.41,35.93,88,76.81h-9.11c-7.65-36.4-39.67-69.09-77.88-69.09s-71,26.67-79.55,59.44l11.45-4.61,2.83,5.38-20.72,8.4-10.31-17,4.5-2.47Z" transform="translate(-326.4 -202.84)"/><path class="cls-1" d="M504.44,328.15c-9.57,36.8-41.08,64.21-84.15,64.21s-80.44-34.22-89.06-75.09h9.11c7.65,36.4,40.7,67.37,78.92,67.37s70-24.95,78.51-57.72l-11.45,4.6-2.83-5.37,20.72-8.4,10.32,17L510,337.24Z" transform="translate(-326.4 -202.84)"/><path class="cls-2" d="M367,307.68a17.56,17.56,0,0,1-.13,2.75,18.91,18.91,0,0,0-.12,2.78c0,.38-.16.58-.57.61-1,.08-2.53.16-4.55.24s-3.54.17-4.56.25l-12.11.93c-.48,0-.77-.12-.88-.45a24.56,24.56,0,0,1-.89-4.21q0-.29,6.81-13.08t6.79-13.4c0-.18-.24-.26-.66-.23l-13.59,1a.46.46,0,0,1-.55-.47c0-.14,0-.92.19-2.35s.23-2.26.28-2.49.23-.37.57-.39c.66,0,1.65-.07,3,0s2.29,0,2.94-.05L363.23,278a.53.53,0,0,1,.6.39,16.2,16.2,0,0,1,.67,3.77q0,.15-7.09,13.44t-7.1,13.67a.58.58,0,0,0,.5.14q7.4-.57,11.3-1.17c.33-.06,1.09-.21,2.27-.46a19.37,19.37,0,0,1,2.25-.38C366.86,307.41,367,307.49,367,307.68Z" transform="translate(-326.4 -202.84)"/><path class="cls-2" d="M402,297.16q0,.16-5.1,8.59-1.71,2.94-5.21,8.75c-.22.37-.43.54-.63.52l-3.79-.38c-.26,0-.46-.23-.59-.63q-1.2-3.81-3.35-12-1.83,3.72-5.66,11.09c-.19.36-.42.53-.69.5l-3.76-.37c-.21,0-.39-.23-.54-.62q-1.15-3.19-3.45-9.61-3.19-8.77-3.13-9.4c.11-1.15.31-2.88.61-5.19s.5-4,.62-5.19c0-.25.21-.36.56-.32s.63.08,1.14.17l1.14.18,1.08.06c.48,0,.84,0,1.08.07s.43.14.41.35c-.11,1.14-.35,2.85-.71,5.13s-.59,4-.7,5.13q-.11,1.07,3.29,10.14a17.15,17.15,0,0,0,1.26,3s.06-.06.12-.14c.2-.3.64-1.17,1.33-2.59q1.92-3.94,4-9c.07-.35.2-1.46.39-3.32.08-.83.17-2.07.29-3.72s.21-2.9.29-3.72c0-.21.18-.31.47-.28s.67.09,1.2.19.93.15,1.21.18.6,0,1.08,0,.84,0,1.08,0,.47.16.45.39c-.09.88-.25,2.21-.48,4s-.39,3.09-.47,4c-.15,1.44-.22,2.32-.24,2.63q0,1.06,2.27,9.55c.16.64.44,1.56.83,2.76a.33.33,0,0,0,.07.16,17.15,17.15,0,0,0,1.77-2.66q5-8.07,5.09-9.16c.11-1.15.22-2.88.32-5.18s.2-4,.31-5.15c0-.21.09-.31.2-.3.28,0,.7.09,1.25.18s1,.16,1.24.19.64,0,1.17.05.92,0,1.18.05.46.13.48.31c0,0,0,.18-.06.59-.1,1.1-.23,2.76-.38,5S402.06,296.05,402,297.16Z" transform="translate(-326.4 -202.84)"/><path class="cls-2" d="M423.19,293.3a2.36,2.36,0,0,1,0,.39,51.49,51.49,0,0,0,.38,8.38c0,.14.66,3.25,1.9,9.32l.06.29c.07.4-.08.63-.47.69s-.95.19-1.71.39-1.33.33-1.71.39-.54-.42-.82-1.38-.49-1.42-.61-1.41a5.89,5.89,0,0,0-1,1,13,13,0,0,1-2.08,1.86,7.31,7.31,0,0,1-3.18,1.32,8.8,8.8,0,0,1-7.32-2.25,10.89,10.89,0,0,1-3.69-6.83,11.35,11.35,0,0,1,1.54-8.07,9.37,9.37,0,0,1,6.86-4.23,8,8,0,0,1,5.91,1.41q.42.36,1.29,1.05a.18.18,0,0,0,.13,0c.09,0,.14-.47.17-1.37s.15-1.37.39-1.4a13.37,13.37,0,0,1,2.16,0C422.56,293,423.16,293.11,423.19,293.3Zm-4.06,9.53a6.71,6.71,0,0,0-2.17-4.19,5.14,5.14,0,0,0-4.41-1.39,5.29,5.29,0,0,0-3.9,2.58,6.67,6.67,0,0,0-1,4.67,6.55,6.55,0,0,0,2.25,4.16,5.33,5.33,0,0,0,4.47,1.33,5.2,5.2,0,0,0,3.81-2.58A6.7,6.7,0,0,0,419.13,302.83Z" transform="translate(-326.4 -202.84)"/><path class="cls-2" d="M449.41,304.35a11,11,0,0,1-3.25,7.2,8.88,8.88,0,0,1-7.27,2.79,7,7,0,0,1-4.45-2l-1.65-1.79c-.09,0-.15.14-.19.32s-.09.87-.2,2.36l-.46,5.95c0,.45-.21.66-.54.64-2.16-.16-3.44-.29-3.83-.37a.5.5,0,0,1-.44-.59c.13-1.8.35-4.49.64-8.09s.51-6.3.64-8.1a63.58,63.58,0,0,0,.06-9.34c0-.17,0-.29,0-.34a.28.28,0,0,1,.24-.28c.53,0,1.32,0,2.36-.06q2.08-.23,2.34-.21c.24,0,.37.45.37,1.3,0,.57,0,1.12,0,1.68a.59.59,0,0,0,.11.34,1.67,1.67,0,0,0,.36-.27c2.11-1.86,4.18-2.72,6.19-2.57a9,9,0,0,1,6.8,3.79A10.92,10.92,0,0,1,449.41,304.35Zm-4.93-.45a6.79,6.79,0,0,0-1.25-4.57,5.14,5.14,0,0,0-4-2.35,4.76,4.76,0,0,0-4.16,1.81,7.52,7.52,0,0,0-.62,8.9,5.07,5.07,0,0,0,4,2.35,5,5,0,0,0,4.21-1.83A7.08,7.08,0,0,0,444.48,303.9Z" transform="translate(-326.4 -202.84)"/><path class="cls-2" d="M473.36,302.44a11.06,11.06,0,0,1-2.11,7.61,8.89,8.89,0,0,1-6.75,3.88,7,7,0,0,1-4.71-1.26l-1.9-1.52c-.08.05-.13.16-.14.35s.05.87.17,2.36l.45,5.95c0,.45-.1.68-.43.71-2.16.17-3.44.25-3.84.22a.49.49,0,0,1-.53-.5c-.14-1.8-.35-4.5-.61-8.1s-.46-6.3-.61-8.1A64.61,64.61,0,0,0,451,294.8a1.41,1.41,0,0,1-.07-.34.27.27,0,0,1,.18-.31c.54-.07,1.31-.21,2.33-.42q2-.54,2.28-.57t.57,1.23c.09.56.17,1.11.24,1.66a.61.61,0,0,0,.15.33,2,2,0,0,0,.32-.33c1.8-2.16,3.71-3.33,5.72-3.49a9.07,9.07,0,0,1,7.3,2.7A10.9,10.9,0,0,1,473.36,302.44Zm-4.94.31a6.8,6.8,0,0,0-1.94-4.32,5.16,5.16,0,0,0-4.32-1.71,4.77,4.77,0,0,0-3.83,2.43,7.55,7.55,0,0,0,.75,8.89,5,5,0,0,0,4.3,1.71,5,5,0,0,0,3.88-2.45A7.16,7.16,0,0,0,468.42,302.75Z" transform="translate(-326.4 -202.84)"/><path class="cls-2" d="M498.84,314.2c0,.12-.14.17-.37.15s-.7-.1-1.26-.21-1-.17-1.26-.2-.77-.06-1.37-.07-1.07-.05-1.38-.08a.83.83,0,0,1-.7-.66q-.53-1.67-2.92-10.25a1.85,1.85,0,0,0-1.49-1.2c-.19,0-.85-.11-2-.23a33.86,33.86,0,0,0-3.6-.28c-.31,0-.5.39-.58,1.14-.12,1.09-.25,2.72-.38,4.9s-.27,3.81-.38,4.88c0,.33-.2.48-.49.45a10.73,10.73,0,0,1-1.31-.25,12.18,12.18,0,0,0-1.33-.24,10.2,10.2,0,0,0-1.14-.05c-.52,0-.9,0-1.15-.05a.49.49,0,0,1-.49-.6c.19-1.73.54-4.31,1.07-7.76s.87-6,1.06-7.76q.78-7.38,1.18-15.78v-.38c0-.31.35-.44,1-.37,1.25.13,3.13.3,5.64.49s4.37.36,5.61.49a11.7,11.7,0,0,1,7.51,3.29,9.62,9.62,0,0,1,2.4,8.09,13.82,13.82,0,0,1-1.45,5.35,10.45,10.45,0,0,1-3.83,3.63q-.45.25-.48.54a67.64,67.64,0,0,0,1.94,6.49A67.9,67.9,0,0,1,498.84,314.2Zm-3.73-21.81c.31-2.81-.25-4.78-1.66-5.89-1.05-.81-3-1.38-5.94-1.68-2.36-.25-3.58-.18-3.67.22q-.29,1.24-.87,6.73l-.48,4.46a.69.69,0,0,0,.27.12l1.28.26c1.38.22,2.86.42,4.47.59C492.52,297.62,494.73,296,495.11,292.39Z" transform="translate(-326.4 -202.84)"/></svg>